<?xml version="1.0" encoding="UTF-8"?>
<svg id="Layer_1" xmlns="http://www.w3.org/2000/svg" version="1.1" viewBox="0 0 512 256">
  <!-- Generator: Adobe Illustrator 29.2.1, SVG Export Plug-In . SVG Version: 2.1.0 Build 116)  -->
  <defs>
    <style>
      .st0 {
        fill: #aaff89;
      }
    </style>
  </defs>
  <path class="st0" d="M265.4,178.7h-22.6v69.3h22.6v-69.3Z"/>
  <path class="st0" d="M326.4,225.4h-51v22.6h51v-22.6Z"/>
  <path class="st0" d="M343.6,146.1h-35.4v22.6h35.4v-22.6Z"/>
  <path class="st0" d="M232.7,225.4h-22.6v22.6h22.6v-22.6Z"/>
  <path class="st0" d="M232.7,97.4v-36l-60.3,74.6h29.1l31.2-38.6Z"/>
  <path class="st0" d="M242.8,136h22.6V21.3l-22.6,27.8v87Z"/>
  <path class="st0" d="M298.1,39.8l-22.6,27.9v147.7h22.6V39.8Z"/>
  <path class="st0" d="M265.4,146.1h-99.4v22.6h99.4v-22.6Z"/>
  <path class="st0" d="M278.6,8l-3.2,3.9v39.8l22.6-28-19.5-15.8Z"/>
</svg>